<?xml version="1.0" encoding="UTF-8"?>
<svg width="200px" height="77px" viewBox="0 0 200 77" version="1.1" xmlns="http://www.w3.org/2000/svg" xmlns:xlink="http://www.w3.org/1999/xlink">
    <title>Group</title>
    <g id="Page-1" stroke="none" stroke-width="1" fill="none" fill-rule="evenodd">
        <g id="footer" transform="translate(-621.000000, -59.000000)" fill="#FFFFFF" fill-rule="nonzero">
            <g id="Group" transform="translate(621.861000, 59.517000)">
                <path d="M60.075,63.337 C58.6734983,64.5834586 57.1713866,65.7119656 55.584,66.711 C54.461,62.688 55.625,58.259 59.068,53.519 C59.094,53.484 59.118,53.448 59.141,53.41 C63.6086341,47.2195882 65.3725797,39.4810347 64.029,31.966 C64.499,30.846 64.96,29.698 65.409,28.514 C66.261,26.266 66.978,24.146 67.569,22.261 C74.7583455,36.0554809 71.6729296,52.969473 60.076,63.337 M43.745,71.352 C43.731,71.314 43.722,71.275 43.704,71.238 C40.685,64.879 44.704,57.631 44.741,57.558 C44.758,57.527 44.775,57.495 44.791,57.458 L44.991,57.036 C47.1682857,55.6190826 49.2132474,54.0085498 51.101,52.224 C55.2223438,48.0951178 58.631765,43.3124669 61.191,38.07 C60.9837553,42.9323898 59.3305888,47.6223966 56.443,51.54 C56.4016506,51.5941305 56.3639026,51.6509195 56.33,51.71 C52.112,57.568 50.881,63.162 52.658,68.356 C49.8403706,69.7641172 46.8396336,70.771207 43.743,71.348 M41.271,55.497 C40.5256667,55.9423333 39.7686667,56.3706667 39,56.782 L38.94,56.814 C38.172,57.226 37.3966667,57.6223333 36.614,58.003 L36.578,58.021 C33.7811039,59.368585 30.9120898,60.5610586 27.984,61.593 L27.984,61.593 L27.971,61.593 C27.7116667,61.685 27.454,61.7756667 27.198,61.865 L27.017,61.927 C26.817,61.995 26.624,62.062 26.43,62.127 L26.171,62.214 L25.671,62.379 L25.381,62.474 L24.92,62.623 L24.628,62.716 L24.181,62.857 L23.892,62.947 L23.449,63.083 L23.173,63.167 L22.722,63.302 L22.47,63.376 L22.002,63.513 L21.782,63.577 L21.282,63.72 L21.113,63.768 L20.524,63.932 L20.459,63.95 C19.336,64.259 18.289,64.528 17.338,64.76 L17.318,64.76 L16.776,64.891 L16.77,64.891 C14.954,65.324 13.541,65.613 12.706,65.773 L12.601,65.793 L12.512,65.81 L12.344,65.842 L12.295,65.851 L12.185,65.872 L12.148,65.878 L12.048,65.896 L12.035,65.896 L11.945,65.912 L11.945,65.912 L11.853,65.928 C11.745,65.945 11.642,65.956 11.537,65.967 C11.484,65.973 11.427,65.983 11.375,65.988 C11.323,65.993 11.267,65.988 11.212,65.995 C11.112,66 11.017,66.008 10.925,66.008 L10.925,66.008 C10.794,66.008 10.668,66.001 10.547,65.99 L10.439,65.978 C10.35,65.968 10.264,65.955 10.181,65.939 C10.146,65.932 10.112,65.927 10.081,65.919 C9.97336166,65.8963602 9.8671724,65.8673084 9.763,65.832 L9.763,65.832 C9.66448966,65.7975345 9.56829207,65.7567841 9.475,65.71 C9.448,65.697 9.422,65.682 9.397,65.667 C9.33209401,65.632086 9.26931701,65.5933513 9.209,65.551 C9.186,65.535 9.16,65.519 9.138,65.501 C9.06075428,65.4435069 8.98819315,65.3799742 8.921,65.311 C8.28785237,64.4614802 8.10628797,63.3575538 8.434,62.35 C8.434,62.335 8.46,62.23 8.501,62.05 C8.501,62.042 8.501,62.035 8.506,62.027 C8.514,61.991 8.523,61.951 8.533,61.909 L8.543,61.865 C8.549,61.838 8.557,61.808 8.563,61.778 C8.742,61.007 9.111,59.494 9.685,57.478 L9.696,57.44 C9.738,57.292 9.781,57.14 9.826,56.987 L9.852,56.897 L10.001,56.389 C10.006,56.371 10.011,56.353 10.017,56.335 C10.247,55.56 10.503,54.729 10.786,53.85 L10.827,53.726 C10.8823333,53.552 10.9393333,53.3763333 10.998,53.199 C11.017,53.14 11.037,53.08 11.057,53.021 C11.111,52.859 11.165,52.695 11.221,52.53 C11.244,52.461 11.267,52.391 11.291,52.321 C11.3436667,52.1656667 11.397,52.009 11.451,51.851 L11.534,51.61 L11.691,51.156 L11.783,50.897 C11.836,50.747 11.89,50.597 11.945,50.443 C11.976,50.355 12.007,50.267 12.039,50.18 C12.095,50.024 12.152,49.868 12.209,49.711 L12.309,49.451 C12.369,49.289 12.43,49.126 12.492,48.962 L12.585,48.713 L12.794,48.166 L12.869,47.966 C12.957,47.738 13.047,47.508 13.138,47.278 C13.148,47.255 13.156,47.232 13.165,47.21 C13.267,46.952 13.371,46.693 13.477,46.433 L13.477,46.426 C14.6367612,43.5465818 15.9544284,40.7333106 17.424,37.999 L17.443,37.965 C17.859,37.1976667 18.2923333,36.4376667 18.743,35.685 L18.771,35.638 C19.2196667,34.8853333 19.6843333,34.1433333 20.165,33.412 L20.185,33.382 C20.4276667,33.0146667 20.6743333,32.6506667 20.925,32.29 C22.0870265,30.6062545 23.3672518,29.007226 24.756,27.505 L24.756,27.505 C24.9673333,27.2783333 25.1806667,27.055 25.396,26.835 L25.447,26.783 C25.672,26.555 25.898,26.33 26.128,26.11 C26.413,25.837 26.707,25.569 27.005,25.303 L27.182,25.146 C27.472,24.8913333 27.767,24.6403333 28.067,24.393 L28.235,24.256 C28.5243333,24.02 28.818,23.7866667 29.116,23.556 L29.208,23.484 C29.5253333,23.242 29.8473333,23.004 30.174,22.77 L30.374,22.624 C30.6986667,22.3926667 31.027,22.1653333 31.359,21.942 L31.5,21.849 C31.816,21.6383333 32.135,21.431 32.457,21.227 L32.602,21.135 C32.9453333,20.9183333 33.2923333,20.7056667 33.643,20.497 L33.843,20.376 C34.1996667,20.1646667 34.5586667,19.9566667 34.92,19.752 L34.969,19.725 C35.327,19.525 35.687,19.3276667 36.049,19.133 L36.21,19.047 C36.5766667,18.8516667 36.9433333,18.6603333 37.31,18.473 L37.477,18.389 C38.2416667,18.0036667 39.011,17.6333333 39.785,17.278 L39.933,17.21 C40.319,17.034 40.7046667,16.8613333 41.09,16.692 L41.179,16.653 C41.979,16.3056667 42.774,15.9723333 43.564,15.653 L43.678,15.608 C47.7615555,13.9980316 51.9416957,12.6447296 56.194,11.556 L56.194,11.556 C56.5386667,11.4666667 56.8736667,11.3816667 57.199,11.301 L57.235,11.292 C57.5576667,11.212 57.8693333,11.1363333 58.17,11.065 L58.178,11.065 C61.137,10.359 63.026,10.038 63.093,10.027 C63.2563333,10.0003333 63.4156667,9.98033333 63.571,9.967 C63.638,9.961 63.701,9.962 63.771,9.958 C63.856,9.958 63.943,9.947 64.026,9.947 C64.157,9.947 64.282,9.954 64.405,9.965 L64.512,9.977 C64.601,9.987 64.687,10 64.771,10.016 L64.871,10.036 C64.9781976,10.0591017 65.0840276,10.0881465 65.188,10.123 L65.188,10.123 C65.28553,10.1574821 65.3807285,10.1982337 65.473,10.245 C65.501,10.258 65.526,10.274 65.553,10.288 C65.617096,10.3228348 65.679193,10.3612282 65.739,10.403 C65.763,10.419 65.789,10.436 65.812,10.454 C65.8881147,10.511005 65.9596652,10.5738625 66.026,10.642 L66.026,10.642 C66.6594745,11.4909693 66.8414264,12.5946119 66.514,13.602 C66.499,13.675 66.014,15.955 64.987,19.424 L64.987,19.438 C63.6549036,23.9808576 62.0202505,28.4294659 60.094,32.754 L60.034,32.887 C59.8613333,33.269 59.685,33.6516667 59.505,34.035 C59.498,34.047 59.492,34.06 59.487,34.072 C59.309,34.4486667 59.1276667,34.826 58.943,35.204 L58.895,35.304 C58.7116667,35.6773333 58.5243333,36.05 58.333,36.422 L58.248,36.587 C57.862,37.337 57.462,38.083 57.048,38.825 L56.948,38.997 C56.748,39.3543333 56.5426667,39.71 56.332,40.064 L56.232,40.238 C56.024,40.5893333 55.8123333,40.9383333 55.597,41.285 L55.569,41.33 C55.3503333,41.6813333 55.1276667,42.0296667 54.901,42.375 C54.857,42.443 54.812,42.511 54.768,42.575 C54.5446667,42.913 54.318,43.2486667 54.088,43.582 L53.988,43.73 C53.7713333,44.0413333 53.551,44.3496667 53.327,44.655 L53.227,44.789 C52.9896667,45.111 52.7483333,45.4286667 52.503,45.742 L52.345,45.942 C52.096,46.257 51.845,46.568 51.59,46.874 L51.511,46.967 C51.2703333,47.2536667 51.026,47.5356667 50.778,47.813 C50.73,47.867 50.678,47.921 50.634,47.975 C50.374,48.2643333 50.1103333,48.548 49.843,48.826 L49.676,48.998 C49.398,49.283 49.118,49.565 48.832,49.839 L48.832,49.839 C48.603,50.059 48.368,50.275 48.132,50.49 L48.077,50.539 C45.9842866,52.3908501 43.7177864,54.0364739 41.309,55.453 L41.268,55.478 M37.495,71.909 C35.1464144,71.9085089 32.8041013,71.6665704 30.505,71.187 C30.427,70.917 30.345,70.647 30.251,70.381 C29.8901814,68.2964772 29.9977823,66.1577817 30.566,64.12 C33.897753,62.8936797 37.1448273,61.4485312 40.286,59.794 C38.9512948,63.6847991 38.9844559,67.9146057 40.38,71.784 C39.42,71.8653333 38.4583333,71.907 37.495,71.909 M26.911,70.228 C24.6550541,69.4935468 22.482738,68.5235294 20.43,67.334 C22.343,66.825 24.499,66.199 26.789,65.445 L26.973,65.382 C26.7270414,66.9865872 26.7061735,68.6176454 26.911,70.228 M4.76,47.106 C5.73666481,47.2799699 6.72696634,47.3659812 7.719,47.363 C8.35362813,47.3622337 8.98779766,47.3288564 9.619,47.263 C9.595,47.326 9.57,47.386 9.546,47.449 C8.692,49.704 7.973,51.831 7.381,53.721 C6.27429958,51.6150266 5.39500873,49.3971889 4.758,47.105 M3.577,36.026 C3.624,35.203 3.71,34.388 3.815,33.578 C5.88173067,34.4953007 8.12093804,34.9593728 10.382,34.939 C12.2082269,34.9263836 14.0253271,34.6800484 15.789,34.206 C13.9971686,37.2711124 12.4100376,40.4513875 11.038,43.726 C8.97990628,44.2024898 6.84158236,44.2151284 4.778,43.763 C4.508,43.654 4.233,43.557 3.957,43.463 C3.56035599,41.0045126 3.43293647,38.5101079 3.577,36.024 M7.792,21.458 C9.48871821,22.1311143 11.297641,22.4765436 13.123,22.476 C16.744,22.476 20.579,21.161 24.588,18.535 C24.6509757,18.5022972 24.7117694,18.4655538 24.77,18.425 C28.8150125,15.7101803 33.5784205,14.2647924 38.45,14.2739563 C33.0941657,16.5982911 28.1606365,19.7942718 23.85,23.732 C21.9829009,25.5399346 20.2826793,27.5125933 18.77,29.626 L18.344,29.808 C18.311,29.822 18.277,29.838 18.244,29.854 C18.17,29.891 10.761,33.587 4.533,30.287 C4.493,30.266 4.451,30.255 4.411,30.237 C5.1192132,27.1664057 6.25602729,24.2107565 7.788,21.457 M14.875,12.623 C21.071219,7.06640351 29.1042153,3.99881908 37.427,4.01096386 C38.087,4.01096386 38.749,4.03 39.413,4.068 C44.7379902,4.3643404 49.9172005,5.91700692 54.527,8.599 C52.611,9.109 50.452,9.735 48.158,10.491 C46.963,10.885 45.804,11.291 44.672,11.71 C37.2212469,10.0332122 29.4089823,11.4533286 23.025,15.645 C22.986,15.667 22.947,15.69 22.91,15.715 C18.018,18.95 13.539,19.915 9.566,18.615 C11.0950304,16.4176536 12.8769093,14.4075439 14.875,12.626 M68.826,17.896 C69.426,15.665 69.718,14.296 69.726,14.271 C70.3040429,12.2064766 69.8058223,9.98965813 68.4,8.371 C67.2462554,7.21250752 65.6584874,6.59264289 64.025,6.663 C63.5364413,6.66472218 63.0488326,6.70619233 62.567,6.787 C62.536,6.792 61.167,7.022 58.922,7.524 C44.3686543,-2.72283243 24.5988281,-1.23886849 11.7382379,11.0657105 C-1.12235232,23.3702895 -3.47804973,43.0552805 6.116,58.047 C5.516,60.275 5.225,61.637 5.216,61.666 C4.63822605,63.7306904 5.13682697,65.9475295 6.543,67.566 C7.69636737,68.7244416 9.28381357,69.3443222 10.917,69.274 C11.4058894,69.272257 11.8938286,69.2307871 12.376,69.15 C12.407,69.145 13.781,68.915 16.034,68.41 C30.5844213,78.6545346 50.350193,77.17024 63.2074486,64.8675481 C76.0647041,52.5648562 78.4184697,32.8836812 68.825,17.896" id="Shape"></path>
                <path d="M44.03,44.838 C40.2500494,48.449903 34.2582209,48.3152694 30.6443189,44.5372299 C27.0304169,40.7591904 27.1618809,34.7672916 30.9380082,31.1513916 C34.7141354,27.5354916 40.706103,27.663786 44.324,31.438 C46.0713175,33.2492186 47.0230738,35.6831674 46.9678706,38.1992325 C46.9126673,40.7152977 45.8550752,43.1051608 44.03,44.838 M46.744,29.127 C41.8488044,24.014894 33.7366295,23.8380126 28.6232591,28.7318875 C23.5098888,33.6257623 23.3309118,41.7378913 28.2234657,46.8525257 C33.1160195,51.96716 41.228102,52.1482325 46.344,47.257 C51.4548901,42.3583431 51.6338651,34.2463024 46.744,29.127" id="Shape"></path>
                <path d="M164.361,43.549 C164.361,48.971 162.43,51.249 158.404,51.249 C154.378,51.249 152.447,48.968 152.447,43.549 L152.447,36.994 C152.447,31.571 154.377,29.294 158.404,29.294 C162.431,29.294 164.361,31.574 164.361,36.994 L164.361,43.549 Z M158.404,24.176 C151.625,24.176 146.695,27.955 146.695,36.994 L146.695,43.549 C146.695,52.587 151.626,56.367 158.404,56.367 C165.182,56.367 170.112,52.588 170.112,43.549 L170.112,36.994 C170.112,27.955 165.182,24.176 158.404,24.176" id="Shape"></path>
                <path d="M111.081,34.755 C111.081,38.042 109.105,39.67 104.818,39.67 C104.631,39.67 104.318,39.679 103.951,39.67 L101.018,39.67 L101.018,29.763 L104.818,29.763 C108.724,29.763 111.081,31.077 111.081,34.529 L111.081,34.755 Z M104.818,24.895 L96.27,24.895 C95.8164781,24.8960995 95.4490995,25.2634781 95.448,25.717 L95.448,54.926 C95.4496484,55.3791313 95.816867,55.7459032 96.27,55.747 L100.235,55.747 C100.448438,55.7447332 100.651876,55.6561939 100.798994,55.5015413 C100.946112,55.3468887 101.024388,55.1392855 101.016,54.926 L101.016,44.513 L104.816,44.513 C111.299,44.513 116.216,42.027 116.216,34.755 L116.216,34.386 C116.216,27.114 110.879,24.895 104.816,24.895" id="Shape"></path>
                <path d="M126.505,29.764 L130.305,29.764 C134.212,29.764 136.425,31.079 136.425,34.53 L136.425,34.755 C136.425,38.042 134.593,39.526 130.305,39.526 L126.505,39.526 L126.505,29.764 Z M136.672,43.082 C139.745,41.854 141.705,39.344 141.705,34.755 L141.705,34.386 C141.705,27.114 136.368,24.895 130.305,24.895 L121.759,24.895 C121.305478,24.8960995 120.938099,25.2634781 120.937,25.717 L120.937,54.926 C120.938648,55.3791313 121.305867,55.7459032 121.759,55.747 L125.724,55.747 C125.937354,55.7447422 126.140698,55.6561712 126.287658,55.5014858 C126.434619,55.3468004 126.512666,55.1391898 126.504,54.926 L126.504,44.081 L130.304,44.081 C130.518667,44.081 130.731,44.0786667 130.941,44.074 L136.795,54.928 C137,55.339 137.165,55.749 137.617,55.749 L142.629,55.749 C142.763265,55.7614293 142.896108,55.7135335 142.99155,55.6182845 C143.086992,55.5230355 143.135157,55.39029 143.123,55.256 C143.130691,55.1406426 143.101634,55.0258146 143.04,54.928 L136.672,43.082 Z" id="Shape"></path>
                <path d="M182.068,42.563 L184.883,30.648 C185.006,30.155 185.129,29.991 185.54,29.991 C185.951,29.991 186.074,30.155 186.197,30.648 L189.011,42.563 L182.068,42.563 Z M197.988,54.847 L191.25,28.947 C190.264,25.126 187.306,24.756 185.54,24.756 C183.774,24.756 180.816,25.126 179.83,28.947 L173.092,54.847 C173.082184,54.9143985 173.068495,54.9811757 173.050999,55.047 C173.050701,55.2396106 173.12978,55.4238338 173.269616,55.5562903 C173.409452,55.6887469 173.597688,55.7577314 173.79,55.747 L178.145,55.747 C178.532282,55.7143459 178.85079,55.4285052 178.925,55.047 L180.816,47.241 L190.265,47.241 L192.155,55.047 C192.22921,55.4285052 192.547718,55.7143459 192.935,55.747 L197.29,55.747 C197.482312,55.7577314 197.670548,55.6887469 197.810384,55.5562903 C197.95022,55.4238338 198.029299,55.2396106 198.029001,55.047 C198.011486,54.9811803 197.997796,54.9144019 197.988,54.847" id="Shape"></path>
            </g>
        </g>
    </g>
</svg>